<svg width="22" height="18" viewBox="0 0 22 18" fill="none" xmlns="http://www.w3.org/2000/svg">
<path fill-rule="evenodd" clip-rule="evenodd" d="M21.5 1.5C21.5 1.10218 21.342 0.720645 21.0607 0.43934C20.7794 0.158036 20.3978 0 20 0H2C1.60217 0 1.22064 0.158036 0.939339 0.43934C0.658033 0.720645 0.5 1.10218 0.5 1.5C0.5 1.89782 0.658033 2.27936 0.939339 2.56066C1.22064 2.84196 1.60217 3 2 3H20C20.3978 3 20.7794 2.84196 21.0607 2.56066C21.342 2.27936 21.5 1.89782 21.5 1.5ZM17 9C17 8.60217 16.842 8.22064 16.5607 7.93934C16.2794 7.65804 15.8978 7.5 15.5 7.5H2C1.60217 7.5 1.22064 7.65804 0.939339 7.93934C0.658033 8.22064 0.5 8.60217 0.5 9C0.5 9.39783 0.658033 9.77936 0.939339 10.0607C1.22064 10.342 1.60217 10.5 2 10.5H15.5C15.8978 10.5 16.2794 10.342 16.5607 10.0607C16.842 9.77936 17 9.39783 17 9ZM13 16.5C13 16.1022 12.842 15.7206 12.5607 15.4393C12.2794 15.158 11.8978 15 11.5 15H2C1.60217 15 1.22064 15.158 0.939339 15.4393C0.658033 15.7206 0.5 16.1022 0.5 16.5C0.5 16.8978 0.658033 17.2794 0.939339 17.5607C1.22064 17.842 1.60217 18 2 18H11.5C11.8978 18 12.2794 17.842 12.5607 17.5607C12.842 17.2794 13 16.8978 13 16.5Z" fill="white"/>
</svg>
