<svg width="12" height="13" viewBox="0 0 12 13" fill="none" xmlns="http://www.w3.org/2000/svg">
<path d="M0.146631 1.35536C0.100144 1.30888 0.0632674 1.25369 0.0381083 1.19295C0.0129493 1.13221 4.8983e-10 1.06711 0 1.00136C-4.8983e-10 0.93562 0.0129493 0.87052 0.0381083 0.809781C0.0632674 0.749041 0.100144 0.693852 0.146631 0.647364C0.193119 0.600876 0.248309 0.564 0.309048 0.538841C0.369788 0.513682 0.434888 0.500732 0.500632 0.500732C0.566375 0.500732 0.631476 0.513682 0.692215 0.538841C0.752954 0.564 0.808144 0.600876 0.854632 0.647364L6.00063 5.79436L11.1466 0.647364C11.1931 0.600876 11.2483 0.564 11.309 0.538841C11.3698 0.513682 11.4349 0.500732 11.5006 0.500732C11.5664 0.500732 11.6315 0.513682 11.6922 0.538841C11.753 0.564 11.8081 0.600876 11.8546 0.647364C11.9011 0.693852 11.938 0.749041 11.9632 0.809781C11.9883 0.87052 12.0013 0.93562 12.0013 1.00136C12.0013 1.06711 11.9883 1.13221 11.9632 1.19295C11.938 1.25369 11.9011 1.30888 11.8546 1.35536L6.70763 6.50136L11.8546 11.6474C11.9011 11.6939 11.938 11.749 11.9632 11.8098C11.9883 11.8705 12.0013 11.9356 12.0013 12.0014C12.0013 12.0671 11.9883 12.1322 11.9632 12.1929C11.938 12.2537 11.9011 12.3089 11.8546 12.3554C11.8081 12.4019 11.753 12.4387 11.6922 12.4639C11.6315 12.489 11.5664 12.502 11.5006 12.502C11.4349 12.502 11.3698 12.489 11.309 12.4639C11.2483 12.4387 11.1931 12.4019 11.1466 12.3554L6.00063 7.20836L0.854632 12.3554C0.808144 12.4019 0.752954 12.4387 0.692215 12.4639C0.631476 12.489 0.566375 12.502 0.500632 12.502C0.434888 12.502 0.369788 12.489 0.309048 12.4639C0.248309 12.4387 0.193119 12.4019 0.146631 12.3554C0.100144 12.3089 0.0632674 12.2537 0.0381083 12.1929C0.0129493 12.1322 0 12.0671 0 12.0014C0 11.9356 0.0129493 11.8705 0.0381083 11.8098C0.0632674 11.749 0.100144 11.6939 0.146631 11.6474L5.29363 6.50136L0.146631 1.35536Z" fill="#B4B4B4"/>
</svg>
