<svg width="130" height="37" viewBox="0 0 130 37" fill="none" xmlns="http://www.w3.org/2000/svg">
<g clip-path="url(#clip0_28_489)">
<path d="M15.4869 14.4506C12.2483 17.2556 2.75687 21.0915 6.52339 31.3106C2.46821 30.2637 -0.796111 25.6364 0.17181 20.8146C1.01633 16.6076 3.99199 13.2658 7.35718 10.0522C9.88536 7.63329 12.6314 5.28385 14.8548 2.69272C15.5909 1.84243 16.2674 0.942736 16.8797 0C18.5806 5.0411 18.7265 11.6467 15.4869 14.4506Z" fill="url(#paint0_linear_28_489)"/>
<path d="M15.4955 25.9861C15.4891 26.0759 15.4869 26.1679 15.4869 26.261C13.9599 29.1216 12.0531 30.6765 10.0958 31.2571C8.93246 31.6022 7.69592 31.6193 6.52349 31.3063C2.75697 21.0873 12.2484 17.2514 15.4869 14.4464C18.7255 11.6414 18.5806 5.03575 16.882 -0.00427246C17.3435 0.713269 17.8451 1.40446 18.3843 2.06606C20.0325 4.0979 22.0252 5.96826 24.0255 7.82257C32.6048 22.3042 15.8915 18.7143 15.4955 25.9861Z" fill="url(#paint1_linear_28_489)"/>
<g style="mix-blend-mode:multiply">
<path d="M15.033 17.045C9.74158 20.9824 7.15973 26.3743 10.0968 31.2614C8.93345 31.6065 7.69691 31.6235 6.52447 31.3106C2.75793 21.0915 12.2494 17.2556 15.488 14.4506C18.7265 11.6456 18.5817 5.04002 16.883 0C19.9595 7.14458 20.5733 12.9246 15.033 17.045Z" fill="#C715CC"/>
</g>
<path d="M21.919 30.4625C20.5948 29.6241 19.3436 28.2638 18.2705 26.2651C17.9099 29.8326 19.6655 33.9936 22.742 36.3729H11.0154C12.963 34.8683 14.3806 32.6515 15.0663 30.3234C15.1274 30.1149 15.1843 29.9042 15.2315 29.6957C15.5053 28.5768 15.5908 27.4205 15.4848 26.2737C15.4708 18.6351 32.7089 22.4913 24.0265 7.83536C24.5717 8.34225 25.1189 8.847 25.6587 9.35281C29.319 12.7909 32.681 16.3092 33.5866 20.823C34.9655 27.6799 27.7555 34.1518 21.919 30.4625Z" fill="url(#paint2_linear_28_489)"/>
<path d="M16.8796 0C16.8796 0 16.9301 0.132604 17.0234 0.38177C17.1168 0.630937 17.2488 1.00201 17.3936 1.47896C17.7951 2.80225 18.0682 4.1609 18.2092 5.53621C18.3059 6.45972 18.3292 7.38942 18.2789 8.31661C18.2298 9.36397 18.0496 10.4011 17.7424 11.4039C17.4086 12.4444 16.8936 13.5074 16.0619 14.364C15.9611 14.4709 15.8473 14.5693 15.74 14.673C15.6327 14.7768 15.5254 14.858 15.4106 14.9521C15.1831 15.1329 14.9481 15.3125 14.7174 15.4793C14.2538 15.8173 13.7838 16.1424 13.3223 16.4664C12.3855 17.108 11.4616 17.7571 10.6064 18.4565C9.76449 19.1274 8.98676 19.8745 8.28315 20.6883C7.63313 21.4463 7.09146 22.2902 6.67353 23.196C6.30199 24.0116 6.04906 24.8758 5.92237 25.7626C5.86923 26.1591 5.83664 26.5582 5.82472 26.9581C5.82472 27.1499 5.82794 27.336 5.83437 27.5163C5.83437 27.6072 5.83437 27.6971 5.84081 27.7848C5.84725 27.8724 5.85691 27.9591 5.86442 28.0446C5.88052 28.2146 5.89554 28.3804 5.90949 28.5397C5.92344 28.6991 5.95778 28.8499 5.97924 28.9974C6.0007 29.145 6.02431 29.2851 6.04577 29.4198C6.06723 29.5546 6.10265 29.6808 6.12947 29.8016C6.18635 30.0422 6.22712 30.2604 6.27863 30.4432C6.33014 30.6261 6.37628 30.7865 6.41169 30.9148L6.519 31.3084C6.519 31.3084 6.46749 31.1758 6.37199 30.9266C6.3237 30.8026 6.26468 30.6486 6.19386 30.4678C6.12303 30.2871 6.06509 30.0722 5.98997 29.8337C5.95349 29.7139 5.91164 29.5888 5.87515 29.4562C5.83867 29.3236 5.80969 29.1803 5.77535 29.0338C5.74102 28.8873 5.70131 28.7344 5.66805 28.574C5.63478 28.4136 5.61654 28.2446 5.58971 28.0724C5.57576 27.9858 5.56181 27.897 5.54786 27.8083C5.53391 27.7195 5.53177 27.6265 5.52318 27.5335C5.50816 27.3474 5.49313 27.156 5.47704 26.9592C5.46563 26.5443 5.47781 26.129 5.51352 25.7155C5.59726 24.7787 5.82415 23.8602 6.18635 22.9918C6.58885 22.0189 7.13421 21.1111 7.80456 20.298C7.97947 20.0841 8.15116 19.8702 8.3411 19.6735C8.43446 19.5719 8.52567 19.4671 8.62224 19.3676L8.91734 19.0703C9.11157 18.8682 9.32297 18.6832 9.52685 18.4875C9.73074 18.2918 9.95072 18.1132 10.1707 17.9357C11.0453 17.2107 11.9821 16.5455 12.9189 15.8932C13.3889 15.5724 13.8589 15.2516 14.3139 14.9307C14.5435 14.7661 14.7592 14.6035 14.9738 14.4346C15.0811 14.3469 15.2002 14.2517 15.2957 14.1715C15.3913 14.0913 15.4921 13.995 15.5823 13.8999C16.3195 13.1449 16.8303 12.1888 17.1618 11.2189C17.4732 10.2673 17.6734 9.28298 17.7585 8.28559C17.8386 7.38176 17.8569 6.47353 17.8132 5.56722C17.7393 4.20404 17.5552 2.84902 17.2627 1.51532C17.1554 1.03196 17.062 0.652325 16.9923 0.394603L16.8796 0Z" fill="url(#paint3_linear_28_489)"/>
<path opacity="0.3" d="M15.4867 14.4506C12.2482 17.2556 2.75676 21.0915 6.52328 31.3106C1.27269 21.9118 9.20063 16.6686 13.0691 13.7481C16.5115 11.1484 16.6028 7.0462 14.8568 2.68844C15.592 1.83946 16.2679 0.941201 16.8796 0C18.5804 5.0411 18.7264 11.6467 15.4867 14.4506Z" fill="white"/>
<g style="mix-blend-mode:multiply">
<path d="M25.0288 20.6787C21.8493 23.2869 18.9873 22.4753 17.3026 26.2748C16.1716 28.8231 16.839 33.5241 17.7039 36.3762H11.0154C12.963 34.8716 14.3806 32.6547 15.0663 30.3267C15.1274 30.1181 15.1843 29.9075 15.2315 29.6989C15.5053 28.5801 15.5908 27.4237 15.4848 26.2769C15.4708 18.6383 32.7089 22.4945 24.0266 7.83859C28.7095 13.0604 28.1429 18.1229 25.0288 20.6787Z" fill="#00CFFF"/>
</g>
<path d="M15.4878 26.2662C15.4878 26.2662 15.4878 26.1711 15.4782 25.9914C15.4728 25.7307 15.4922 25.47 15.5361 25.2129C15.607 24.8068 15.7429 24.4147 15.9385 24.0515C16.1986 23.5795 16.5346 23.1532 16.9333 22.7897C17.1578 22.5816 17.3939 22.3863 17.6404 22.2047C17.8958 22.0186 18.1695 21.8411 18.4549 21.67C19.0269 21.3267 19.646 21.0006 20.291 20.6862C20.9359 20.3718 21.5958 20.0446 22.2526 19.7034C22.911 19.3683 23.5377 18.9746 24.1251 18.5271C24.702 18.1033 25.1889 17.5697 25.5577 16.9572C25.7279 16.6578 25.865 16.3408 25.9665 16.0119C26.0634 15.6857 26.1252 15.3502 26.1511 15.011C26.1911 14.3531 26.1456 13.6928 26.0159 13.0465C25.8955 12.4557 25.7364 11.8734 25.5394 11.3034C25.357 10.7687 25.1595 10.2886 24.9825 9.86188C24.8054 9.4352 24.6327 9.06947 24.4878 8.77004C24.3429 8.47061 24.2292 8.23535 24.1519 8.07387C24.0747 7.9124 24.0328 7.82578 24.0328 7.82578L24.1863 8.05355C24.2839 8.20327 24.4384 8.41714 24.6155 8.70374C24.7926 8.99033 25.0029 9.33575 25.2293 9.74425C25.4557 10.1528 25.6972 10.6244 25.9204 11.158C26.1744 11.7315 26.3808 12.3249 26.5374 12.9321C26.7204 13.6225 26.8014 14.3358 26.7778 15.0495C26.7518 15.8365 26.5389 16.6061 26.1564 17.2952C25.7658 18.002 25.1907 18.5934 24.5661 19.0832C23.9402 19.5487 23.2736 19.9574 22.5745 20.3044C21.8963 20.653 21.2127 20.946 20.5646 21.2433C19.9165 21.5406 19.2919 21.8219 18.7221 22.1245C18.1884 22.4016 17.6809 22.7262 17.2058 23.0944C16.8104 23.4069 16.4639 23.7763 16.1778 24.1906C15.9612 24.5166 15.7938 24.8726 15.681 25.2471C15.6094 25.4922 15.557 25.7425 15.5243 25.9957L15.4878 26.2662Z" fill="url(#paint4_linear_28_489)"/>
<path d="M6.52127 31.3105C2.46822 30.2636 -0.79611 25.6364 0.171815 20.8145C1.01633 16.6076 3.992 13.2657 7.35721 10.0522C8.38844 16.3734 4.91808 18.6308 3.86216 20.4712C2.80624 22.3117 2.45642 27.6543 6.52127 31.3105Z" fill="url(#paint5_linear_28_489)"/>
<path opacity="0.3" d="M15.4956 25.986H15.4784C13.8119 21.87 19.2986 19.6606 22.5769 17.7432C26.7125 15.3264 20.2043 6.15002 18.3918 2.0639C20.0401 4.09573 22.0328 5.96609 24.033 7.8204C32.6048 22.3041 15.8915 18.7142 15.4956 25.986Z" fill="white"/>
<path opacity="0.3" d="M21.9189 30.4625C22.6111 27.1153 25.3056 26.7721 26.4731 25.9925C29.7503 23.8024 33.3259 17.0449 24.607 8.70267L25.6608 9.3443C29.3211 12.7824 32.6831 16.3006 33.5888 20.8145C34.9655 27.68 27.7555 34.1519 21.9189 30.4625Z" fill="#FFEC00"/>
<path d="M39.5025 17.4599L40.7902 16.4568C40.8134 16.4374 40.8403 16.4229 40.8693 16.4142C40.8982 16.4055 40.9287 16.4027 40.9587 16.406C40.9888 16.4093 41.0179 16.4186 41.0443 16.4334C41.0706 16.4482 41.0937 16.4681 41.1121 16.4921C41.8891 17.3893 43.0727 17.6684 44.2241 17.6684C45.1598 17.6684 46.5548 17.3166 46.5548 16.1563C46.5548 13.8036 39.6871 14.0443 39.6871 10.0159C39.6871 7.60549 41.6991 6.40884 43.9236 6.40884C45.442 6.40884 46.9283 7.09539 48.0904 8.06318C48.1144 8.08201 48.134 8.10571 48.1481 8.1327C48.1621 8.1597 48.1702 8.18936 48.1718 8.21972C48.1734 8.25008 48.1685 8.28043 48.1575 8.30876C48.1464 8.33709 48.1294 8.36274 48.1076 8.384L47.0345 9.59775C47.0156 9.62162 46.9918 9.6412 46.9647 9.65519C46.9377 9.66918 46.9079 9.67725 46.8774 9.67887C46.847 9.68049 46.8165 9.67562 46.7881 9.66458C46.7596 9.65354 46.7339 9.63659 46.7126 9.61486C45.9313 8.9002 44.9122 8.49907 43.8517 8.4888C42.7926 8.4888 41.7689 8.8588 41.7689 10.0929C41.7689 12.2038 48.6366 11.9226 48.6366 16.2322C48.6366 18.6255 46.2705 19.7516 44.1522 19.7516C42.4041 19.7516 40.6035 19.1527 39.4735 17.7807C39.4524 17.7586 39.4362 17.7323 39.4261 17.7035C39.416 17.6747 39.4122 17.6441 39.4149 17.6137C39.4177 17.5833 39.4269 17.5539 39.442 17.5273C39.4571 17.5008 39.4778 17.4778 39.5025 17.4599Z" fill="#FBFCFE"/>
<path d="M51.3141 19.0084V7.14992C51.3119 7.11929 51.3163 7.08854 51.327 7.05977C51.3378 7.03099 51.3546 7.00486 51.3764 6.98314C51.3982 6.96143 51.4244 6.94465 51.4533 6.93394C51.4822 6.92323 51.513 6.91884 51.5438 6.92107H53.2028C53.2335 6.91884 53.2643 6.92323 53.2932 6.93394C53.3221 6.94465 53.3483 6.96143 53.3701 6.98314C53.3919 7.00486 53.4087 7.03099 53.4195 7.05977C53.4302 7.08854 53.4346 7.11929 53.4324 7.14992V16.7744C53.4278 16.8403 53.4374 16.9065 53.4606 16.9684C53.4839 17.0303 53.5202 17.0865 53.5671 17.1332C53.6139 17.1799 53.6703 17.2161 53.7325 17.2392C53.7946 17.2624 53.8609 17.272 53.9271 17.2674H59.0779C59.1086 17.2652 59.1395 17.2696 59.1684 17.2803C59.1972 17.291 59.2235 17.3078 59.2453 17.3295C59.267 17.3512 59.2839 17.3773 59.2946 17.4061C59.3054 17.4349 59.3098 17.4656 59.3075 17.4962V19.0094C59.3098 19.04 59.3054 19.0708 59.2946 19.0996C59.2839 19.1283 59.267 19.1545 59.2453 19.1762C59.2235 19.1979 59.1972 19.2147 59.1684 19.2254C59.1395 19.2361 59.1086 19.2405 59.0779 19.2383H51.5438C51.5129 19.2405 51.482 19.2361 51.453 19.2253C51.4241 19.2146 51.3978 19.1977 51.376 19.1758C51.3542 19.154 51.3374 19.1277 51.3267 19.0988C51.316 19.0699 51.3117 19.0391 51.3141 19.0084Z" fill="#FBFCFE"/>
<path d="M66.6206 6.63983C69.798 6.63983 72.9765 8.78609 72.9765 13.0786C72.9765 17.3711 69.798 19.5184 66.6206 19.5184C63.425 19.5184 60.2476 17.3722 60.2476 13.0786C60.2476 8.78502 63.425 6.63983 66.6206 6.63983ZM66.6206 17.3893C68.7571 17.3893 70.9129 15.9649 70.9129 13.0786C70.9129 10.1923 68.7571 8.76898 66.6206 8.76898C64.4669 8.76898 62.3283 10.1934 62.3283 13.0786C62.3283 15.9638 64.4669 17.3893 66.6206 17.3893Z" fill="#FBFCFE"/>
<path d="M73.9645 8.66203V7.14992C73.9623 7.11929 73.9667 7.08854 73.9774 7.05977C73.9882 7.03099 74.005 7.00486 74.0268 6.98314C74.0486 6.96143 74.0748 6.94465 74.1037 6.93394C74.1326 6.92323 74.1634 6.91884 74.1941 6.92107H83.9045C83.9349 6.91947 83.9653 6.92434 83.9936 6.93533C84.022 6.94633 84.0476 6.96321 84.069 6.98485C84.0903 7.00649 84.1067 7.0324 84.1172 7.06086C84.1277 7.08931 84.132 7.11967 84.1298 7.14992V8.66203C84.1321 8.69265 84.1277 8.7234 84.1169 8.75217C84.1062 8.78095 84.0893 8.80708 84.0675 8.8288C84.0458 8.85051 84.0195 8.86729 83.9907 8.878C83.9618 8.88872 83.9309 8.89311 83.9002 8.89088H80.6026C80.5356 8.88601 80.4683 8.89529 80.4052 8.91811C80.342 8.94093 80.2844 8.97678 80.2361 9.02331C80.1878 9.06984 80.1498 9.126 80.1248 9.18813C80.0998 9.25026 80.0882 9.31696 80.0907 9.38386V19.0083C80.093 19.039 80.0886 19.0697 80.0778 19.0985C80.0671 19.1273 80.0502 19.1534 80.0285 19.1751C80.0067 19.1968 79.9804 19.2136 79.9516 19.2243C79.9227 19.235 79.8918 19.2394 79.8611 19.2372H78.2021C78.1717 19.2381 78.1415 19.2328 78.1132 19.2216C78.0849 19.2104 78.0593 19.1936 78.0378 19.1721C78.0163 19.1507 77.9994 19.1251 77.9881 19.097C77.9769 19.0688 77.9716 19.0386 77.9725 19.0083V9.38386C77.9769 9.31793 77.9672 9.25181 77.9438 9.18996C77.9204 9.12812 77.884 9.07198 77.837 9.02536C77.7901 8.97873 77.7336 8.94269 77.6714 8.91968C77.6092 8.89666 77.5429 8.88721 77.4767 8.89195H74.1931C74.1623 8.89403 74.1315 8.8895 74.1027 8.87865C74.0738 8.86781 74.0477 8.8509 74.026 8.82909C74.0043 8.80727 73.9876 8.78106 73.977 8.75224C73.9664 8.72341 73.9621 8.69264 73.9645 8.66203Z" fill="#FBFCFE"/>
<path d="M86.6938 6.92107H88.3539C88.3846 6.91884 88.4155 6.92323 88.4444 6.93394C88.4732 6.94465 88.4994 6.96143 88.5212 6.98314C88.543 7.00486 88.5599 7.03099 88.5706 7.05977C88.5814 7.08854 88.5858 7.11929 88.5835 7.14992V19.0083C88.5858 19.039 88.5814 19.0697 88.5706 19.0985C88.5599 19.1273 88.543 19.1534 88.5212 19.1751C88.4994 19.1968 88.4732 19.2136 88.4444 19.2243C88.4155 19.235 88.3846 19.2394 88.3539 19.2372H86.6938C86.6631 19.2394 86.6322 19.235 86.6034 19.2243C86.5745 19.2136 86.5483 19.1968 86.5265 19.1751C86.5047 19.1534 86.4879 19.1273 86.4771 19.0985C86.4664 19.0697 86.462 19.039 86.4642 19.0083V7.14992C86.462 7.11929 86.4664 7.08854 86.4771 7.05977C86.4879 7.03099 86.5047 7.00486 86.5265 6.98314C86.5483 6.96143 86.5745 6.94465 86.6034 6.93394C86.6322 6.92323 86.6631 6.91884 86.6938 6.92107Z" fill="#FBFCFE"/>
<path d="M97.7101 6.65695C98.9463 6.65695 100.129 7.14994 101.206 7.7659C101.233 7.78194 101.255 7.8035 101.273 7.8291C101.29 7.85471 101.302 7.88376 101.307 7.91425C101.312 7.94473 101.31 7.97593 101.302 8.00571C101.293 8.03548 101.279 8.06312 101.259 8.08672L100.306 9.44163C100.292 9.46993 100.271 9.49444 100.245 9.51318C100.219 9.53192 100.19 9.54435 100.158 9.54946C100.127 9.55457 100.095 9.55221 100.064 9.54258C100.034 9.53295 100.007 9.51631 99.984 9.49403C99.3271 9.01758 98.5365 8.75907 97.724 8.75509C92.1622 8.75509 92.1622 17.4171 97.724 17.4171C98.8712 17.4171 99.5773 17.0653 100.001 16.7134C100.022 16.6928 100.046 16.677 100.074 16.6673C100.101 16.6577 100.131 16.6544 100.16 16.6577C100.189 16.661 100.216 16.6708 100.241 16.6864C100.266 16.702 100.286 16.7229 100.302 16.7477L101.267 18.0855C101.286 18.1098 101.299 18.1376 101.306 18.1671C101.313 18.1966 101.314 18.2273 101.309 18.2573C101.304 18.2872 101.293 18.3159 101.277 18.3415C101.26 18.3671 101.239 18.3891 101.214 18.4063C100.261 19.1452 99.2371 19.5142 97.7004 19.5142C93.4457 19.5142 91.3274 16.2953 91.3274 13.0979C91.3274 9.9004 93.4553 6.65695 97.7101 6.65695Z" fill="#FBFCFE"/>
<path d="M104.089 17.4599L105.377 16.4568C105.4 16.4374 105.427 16.423 105.456 16.4142C105.485 16.4055 105.515 16.4027 105.546 16.406C105.576 16.4093 105.605 16.4186 105.631 16.4334C105.657 16.4482 105.681 16.4682 105.699 16.4921C106.476 17.3893 107.658 17.6684 108.811 17.6684C109.747 17.6684 111.142 17.3166 111.142 16.1563C111.142 13.7812 104.274 14.0443 104.274 9.91001C104.275 9.87874 104.282 9.84799 104.295 9.81953C104.308 9.79108 104.327 9.76548 104.35 9.74421C104.373 9.72294 104.4 9.70642 104.43 9.6956C104.459 9.68478 104.49 9.67988 104.522 9.68116H106.131C106.163 9.67988 106.194 9.68479 106.223 9.69562C106.253 9.70646 106.28 9.72299 106.303 9.74427C106.326 9.76556 106.344 9.79116 106.357 9.81961C106.37 9.84806 106.377 9.87879 106.378 9.91001C106.7 12.4434 113.228 12.0392 113.228 16.2258C113.228 18.6191 110.867 19.7452 108.744 19.7452C106.996 19.7452 105.196 19.1463 104.066 17.7743C104.045 17.7527 104.03 17.7271 104.02 17.6991C104.01 17.6712 104.006 17.6415 104.008 17.6119C104.01 17.5824 104.019 17.5536 104.033 17.5274C104.047 17.5012 104.066 17.4782 104.089 17.4599ZM106.314 6.85049C107.006 6.55826 107.751 6.40876 108.503 6.41097C110.021 6.41097 111.508 7.09752 112.67 8.06532C112.694 8.08415 112.713 8.10785 112.727 8.13484C112.741 8.16183 112.75 8.1915 112.751 8.22186C112.753 8.25222 112.748 8.28257 112.737 8.3109C112.726 8.33923 112.709 8.36487 112.687 8.38613L111.614 9.59989C111.595 9.62376 111.571 9.64334 111.544 9.65733C111.517 9.67132 111.487 9.67939 111.457 9.68101C111.426 9.68263 111.396 9.67776 111.367 9.66672C111.339 9.65568 111.313 9.63873 111.292 9.617C110.511 8.90197 109.492 8.50076 108.432 8.49093C108.055 8.48288 107.68 8.53672 107.32 8.65027C107.292 8.66515 107.262 8.6742 107.23 8.67685C107.198 8.6795 107.167 8.67571 107.136 8.66571C107.106 8.6557 107.079 8.6397 107.055 8.61866C107.031 8.59762 107.012 8.57199 106.998 8.54333L106.223 7.15313C106.205 7.12871 106.192 7.10049 106.187 7.07063C106.181 7.04076 106.183 7.01005 106.191 6.98084C106.199 6.95163 106.214 6.92469 106.235 6.9021C106.255 6.87951 106.28 6.86185 106.308 6.85049H106.314Z" fill="#FBFCFE"/>
<path d="M115.894 7.14992C115.891 7.11929 115.896 7.08854 115.907 7.05977C115.917 7.03099 115.934 7.00486 115.956 6.98314C115.978 6.96143 116.004 6.94465 116.033 6.93394C116.062 6.92323 116.093 6.91884 116.123 6.92107H117.783C117.814 6.91884 117.845 6.92323 117.874 6.93394C117.903 6.94465 117.929 6.96143 117.951 6.98314C117.972 7.00486 117.989 7.03099 118 7.05977C118.011 7.08854 118.015 7.11929 118.013 7.14992V8.66203C118.015 8.69265 118.011 8.7234 118 8.75217C117.989 8.78095 117.972 8.80708 117.951 8.8288C117.929 8.85051 117.903 8.86729 117.874 8.878C117.845 8.88872 117.814 8.89311 117.783 8.89088H116.123C116.093 8.89311 116.062 8.88872 116.033 8.878C116.004 8.86729 115.978 8.85051 115.956 8.8288C115.934 8.80708 115.917 8.78095 115.907 8.75217C115.896 8.7234 115.891 8.69265 115.894 8.66203V7.14992ZM116.123 10.5987H117.783C117.814 10.5965 117.845 10.6008 117.874 10.6116C117.903 10.6223 117.929 10.6391 117.951 10.6608C117.972 10.6825 117.989 10.7086 118 10.7374C118.011 10.7662 118.015 10.7969 118.013 10.8275V19.0083C118.015 19.039 118.011 19.0697 118 19.0985C117.989 19.1273 117.972 19.1534 117.951 19.1751C117.929 19.1968 117.903 19.2136 117.874 19.2243C117.845 19.235 117.814 19.2394 117.783 19.2372H116.123C116.093 19.2394 116.062 19.235 116.033 19.2243C116.004 19.2136 115.978 19.1968 115.956 19.1751C115.934 19.1534 115.917 19.1273 115.907 19.0985C115.896 19.0697 115.891 19.039 115.894 19.0083V10.8275C115.891 10.7968 115.896 10.766 115.907 10.7371C115.917 10.7083 115.934 10.6821 115.956 10.6603C115.978 10.6386 116.005 10.6218 116.034 10.6112C116.063 10.6006 116.094 10.5963 116.124 10.5987H116.123Z" fill="#FBFCFE"/>
<path d="M120.874 17.4599L122.161 16.4568C122.185 16.4374 122.212 16.423 122.24 16.4142C122.269 16.4055 122.3 16.4027 122.33 16.406C122.36 16.4093 122.389 16.4186 122.415 16.4334C122.442 16.4482 122.465 16.4682 122.483 16.4921C123.26 17.3893 124.443 17.6684 125.59 17.6684C126.526 17.6684 127.921 17.3166 127.921 16.1563C127.921 13.7812 121.053 14.0443 121.053 9.91001C121.054 9.87874 121.061 9.84799 121.074 9.81953C121.087 9.79108 121.106 9.76548 121.129 9.74421C121.152 9.72294 121.179 9.70642 121.209 9.6956C121.238 9.68478 121.269 9.67988 121.301 9.68116H122.91C122.942 9.67988 122.973 9.68479 123.002 9.69562C123.032 9.70646 123.059 9.72299 123.082 9.74427C123.105 9.76556 123.123 9.79116 123.136 9.81961C123.149 9.84806 123.156 9.87879 123.157 9.91001C123.479 12.4434 130.007 12.0392 130.007 16.2258C130.007 18.6191 127.646 19.7452 125.523 19.7452C123.775 19.7452 121.975 19.1463 120.845 17.7743C120.825 17.7523 120.809 17.7264 120.8 17.6983C120.79 17.6701 120.787 17.6403 120.79 17.6107C120.792 17.5812 120.801 17.5525 120.816 17.5265C120.83 17.5005 120.85 17.4778 120.874 17.4599ZM123.098 6.85049C123.791 6.55826 124.535 6.40876 125.287 6.41097C126.806 6.41097 128.292 7.09752 129.454 8.06532C129.478 8.08415 129.498 8.10785 129.512 8.13484C129.526 8.16183 129.534 8.1915 129.536 8.22186C129.537 8.25222 129.532 8.28257 129.521 8.3109C129.51 8.33923 129.493 8.36487 129.471 8.38613L128.398 9.59989C128.379 9.62376 128.356 9.64334 128.328 9.65733C128.301 9.67132 128.272 9.67939 128.241 9.68101C128.211 9.68263 128.18 9.67776 128.152 9.66672C128.123 9.65568 128.098 9.63873 128.076 9.617C127.296 8.90197 126.277 8.50076 125.217 8.49093C124.84 8.48288 124.464 8.53672 124.105 8.65027C124.077 8.66515 124.046 8.6742 124.014 8.67685C123.983 8.6795 123.951 8.67571 123.921 8.66571C123.891 8.6557 123.863 8.6397 123.839 8.61866C123.815 8.59762 123.796 8.57199 123.783 8.54333L123.007 7.15313C122.989 7.12836 122.977 7.0998 122.972 7.06967C122.967 7.03953 122.969 7.00862 122.978 6.97935C122.986 6.95008 123.002 6.92323 123.023 6.90088C123.044 6.87853 123.07 6.86129 123.098 6.85049Z" fill="#FBFCFE"/>
<path d="M62.0246 26.0556C61.9694 25.8569 61.889 25.6661 61.7853 25.4877C61.6383 25.2257 61.5235 25.1669 61.091 25.1669H60.2669C60.0437 25.1669 60.0201 25.1904 60.0201 25.4129V27.187H60.9762C61.531 27.187 61.5696 27.095 61.6855 26.5571H61.9173V28.1612H61.678C61.5782 27.6265 61.5246 27.5003 60.9773 27.5003H60.0212V28.8734C60.0212 29.5418 60.0984 29.5728 60.8002 29.6337V29.8476H58.6541V29.6337C59.2786 29.5878 59.3473 29.5343 59.3473 28.8734V25.8331C59.3473 25.1648 59.27 25.1338 58.6541 25.0728V24.8589H61.1018C61.795 24.8589 62.0568 24.8515 62.1877 24.8429C62.1963 25.1199 62.2264 25.6578 62.265 26.0256L62.0246 26.0556Z" fill="#FBFCFE"/>
<path d="M67.8759 29.9118C67.7762 29.9118 67.6914 29.9032 67.5905 29.8958C67.0282 29.8573 66.732 29.7118 66.3886 29.2359C66.1032 28.8435 65.8263 28.3601 65.5795 27.9687C65.425 27.7228 65.3252 27.6768 64.9357 27.6768H64.6653V28.882C64.6653 29.5354 64.75 29.5739 65.3671 29.6305V29.8444H63.3057V29.6305C63.9495 29.561 63.9989 29.5311 63.9989 28.882V25.8171C63.9989 25.1648 63.9141 25.1413 63.3057 25.0686V24.8547H65.2716C65.8339 24.8547 66.2116 24.9231 66.5045 25.1156C66.6728 25.2245 66.8097 25.3754 66.9015 25.5532C66.9934 25.731 67.037 25.9296 67.0282 26.1294C67.0282 26.7903 66.599 27.1988 66.0345 27.4501C66.173 27.6885 66.5045 28.1986 66.7353 28.5483C66.919 28.8264 67.1227 29.0909 67.3448 29.3397C67.4919 29.5117 67.688 29.6351 67.9071 29.6936L67.8759 29.9118ZM65.029 27.4148C65.4293 27.4148 65.6836 27.3538 65.8768 27.1924C66.1772 26.9699 66.306 26.663 66.306 26.2481C66.306 25.4257 65.7587 25.1263 65.1653 25.1263C64.9421 25.1263 64.8112 25.1573 64.7565 25.2033C64.7018 25.2493 64.6642 25.3338 64.6642 25.5337V27.4148H65.029Z" fill="#FBFCFE"/>
<path d="M72.5623 28.6285C72.5161 28.8285 72.3079 29.6198 72.2307 29.8498H68.4856V29.6359C69.2024 29.5824 69.2561 29.5129 69.2561 28.8873V25.8481C69.2561 25.1648 69.1713 25.1263 68.5929 25.0728V24.8589H70.9537C71.678 24.8589 71.9785 24.8515 72.0719 24.8429C72.0794 25.0354 72.1094 25.6118 72.1405 26.0192L71.9098 26.0577C71.8567 25.8544 71.7788 25.6583 71.678 25.4738C71.5546 25.2204 71.3776 25.1669 70.9151 25.1669H70.18C69.9407 25.1669 69.9257 25.1904 69.9257 25.4129V27.11H70.7841C71.3625 27.11 71.4012 26.9945 71.4935 26.4684H71.7317V28.0511H71.4935C71.3926 27.4971 71.3314 27.4212 70.7766 27.4212H69.9289V28.9493C69.9289 29.484 70.0984 29.5332 70.4837 29.5407H71.2005C71.6705 29.5407 71.7478 29.4712 71.9173 29.2723C72.0846 29.0545 72.2244 28.8171 72.3337 28.5654L72.5623 28.6285Z" fill="#FBFCFE"/>
<path d="M77.4878 28.6285C77.4417 28.8285 77.2335 29.6198 77.1562 29.8498H73.4111V29.6359C74.1269 29.5824 74.1816 29.5129 74.1816 28.8873V25.8481C74.1816 25.1648 74.0968 25.1263 73.5184 25.0728V24.8589H75.8792C76.6036 24.8589 76.904 24.8515 76.9963 24.8429C77.0038 25.0354 77.035 25.6118 77.0661 26.0192L76.8343 26.0577C76.7819 25.8543 76.7044 25.6582 76.6036 25.4738C76.4802 25.2204 76.3031 25.1669 75.8406 25.1669H75.1088C74.8695 25.1669 74.8544 25.1904 74.8544 25.4129V27.11H75.7129C76.2913 27.11 76.3289 26.9945 76.4222 26.4684H76.6604V28.0511H76.4222C76.3213 27.4971 76.2602 27.4212 75.7054 27.4212H74.8577V28.9493C74.8577 29.484 75.0272 29.5332 75.4124 29.5407H76.1293C76.5993 29.5407 76.6765 29.4712 76.8461 29.2723C77.0134 29.0547 77.1529 28.8173 77.2614 28.5654L77.4878 28.6285Z" fill="#FBFCFE"/>
<path d="M85.2182 28.6211C85.102 29.0165 84.9604 29.404 84.7943 29.7813C84.3318 29.89 83.8593 29.9516 83.3843 29.9653C81.5418 29.9653 80.6018 28.744 80.6018 27.3987C80.6018 25.8321 81.7962 24.7488 83.5227 24.7488C84.0126 24.7622 84.5001 24.8213 84.9789 24.9253C85.01 25.2717 85.0637 25.7316 85.1259 26.1166L84.8866 26.17C84.7332 25.6557 84.5475 25.3402 84.1548 25.1787C83.8972 25.0779 83.6223 25.0285 83.3457 25.0333C82.0741 25.0333 81.4034 25.97 81.4034 27.2373C81.4034 28.7194 82.1739 29.6723 83.4229 29.6723C84.2084 29.6723 84.5937 29.3108 84.9875 28.543L85.2182 28.6211Z" fill="#FBFCFE"/>
<path d="M89.2421 29.8497V29.6358C89.7422 29.5749 89.8044 29.4979 89.6961 29.2081C89.5877 28.9183 89.4417 28.5247 89.2797 28.0403H87.6153C87.4919 28.3857 87.3761 28.6819 87.2687 29.0028C87.0992 29.5022 87.2065 29.5631 87.8386 29.6444V29.8583H86.0615V29.6444C86.5476 29.5834 86.671 29.5289 86.9404 28.8381L88.5296 24.7958L88.7764 24.7498C89.2615 26.063 89.7937 27.5152 90.2787 28.8434C90.5256 29.5118 90.5953 29.5738 91.1372 29.6348V29.8486L89.2421 29.8497ZM88.4706 25.7561C88.2238 26.417 87.962 27.1153 87.7312 27.7227H89.1735L88.4706 25.7561Z" fill="#FBFCFE"/>
<path d="M94.6364 26.0245C94.5055 25.5176 94.2898 25.0193 93.5634 25.0193C92.9624 25.0193 92.7543 25.4567 92.7543 25.8556C92.7543 26.3903 93.0934 26.6544 93.7329 26.9848C94.6579 27.4607 95.0582 27.8147 95.0582 28.544C95.0582 29.3503 94.3574 29.9652 93.3627 29.9652C92.9567 29.9557 92.5562 29.8697 92.1823 29.7118C92.0921 29.3319 92.0226 28.9474 91.9741 28.56L92.2134 28.498C92.3679 29.0124 92.707 29.6808 93.5086 29.6808C93.6271 29.6873 93.7456 29.669 93.8566 29.6271C93.9675 29.5851 94.0684 29.5204 94.1526 29.4371C94.2369 29.3539 94.3027 29.2539 94.3457 29.1437C94.3888 29.0335 94.4081 28.9156 94.4025 28.7974C94.4025 28.2061 94.0806 27.9687 93.4078 27.5997C92.5987 27.1613 92.1437 26.7934 92.1437 26.0791C92.1437 25.3947 92.7146 24.7498 93.7318 24.7498C94.0751 24.763 94.4161 24.8121 94.7491 24.8963C94.7802 25.1722 94.8114 25.4791 94.8725 25.9785L94.6364 26.0245Z" fill="#FBFCFE"/>
<path d="M96.1086 29.8497V29.6358C96.7407 29.5663 96.8029 29.5364 96.8029 28.8873V25.8331C96.8029 25.1722 96.7407 25.1412 96.1086 25.0728V24.8589H98.1743V25.0728C97.5305 25.1412 97.4736 25.1722 97.4736 25.8331V28.8819C97.4736 29.5428 97.5348 29.5653 98.1743 29.6305V29.8444L96.1086 29.8497Z" fill="#FBFCFE"/>
<path d="M104.664 25.0728C104.171 25.1262 104.009 25.2032 103.986 25.5561C103.979 25.8021 103.963 26.125 103.963 26.8394V29.9192H103.67L100.371 25.9015V27.8264C100.371 28.5173 100.395 28.8637 100.41 29.0862C100.426 29.4776 100.618 29.5931 101.173 29.639V29.8529H99.3V29.639C99.7776 29.6005 99.9632 29.485 99.9932 29.1097C100.017 28.8637 100.032 28.5173 100.032 27.8189V25.8556C100.032 25.6417 100.017 25.5176 99.8784 25.3487C99.7314 25.1572 99.5694 25.1113 99.1917 25.0728V24.8589H100.348L103.616 28.7215V26.8415C103.616 26.1272 103.601 25.7967 103.577 25.5658C103.555 25.2203 103.377 25.1134 102.761 25.0749V24.861H104.664V25.0728Z" fill="#FBFCFE"/>
<path d="M108.256 24.7498C109.574 24.7498 110.753 25.7561 110.753 27.2843C110.753 28.9354 109.627 29.9652 108.21 29.9652C106.73 29.9652 105.651 28.8434 105.651 27.3987C105.651 26.0245 106.63 24.7498 108.256 24.7498ZM108.102 25.0343C107.243 25.0343 106.452 25.7561 106.452 27.1923C106.452 28.6285 107.239 29.6733 108.333 29.6733C109.266 29.6733 109.968 28.9824 109.968 27.4992C109.968 25.8866 109.111 25.0343 108.102 25.0343Z" fill="#FBFCFE"/>
</g>
<defs>
<linearGradient id="paint0_linear_28_489" x1="3.32346" y1="23.7821" x2="24.2746" y2="3.31985" gradientUnits="userSpaceOnUse">
<stop stop-color="#FB2974"/>
<stop offset="1" stop-color="#FFF200"/>
</linearGradient>
<linearGradient id="paint1_linear_28_489" x1="5.14028" y1="27.5827" x2="21.4341" y2="8.42046" gradientUnits="userSpaceOnUse">
<stop stop-color="#452AF1"/>
<stop offset="1" stop-color="#E03BF9"/>
</linearGradient>
<linearGradient id="paint2_linear_28_489" x1="15.0641" y1="31.4826" x2="29.261" y2="16.5329" gradientUnits="userSpaceOnUse">
<stop stop-color="#0086C1"/>
<stop offset="1" stop-color="#9AEE64"/>
</linearGradient>
<linearGradient id="paint3_linear_28_489" x1="5.30213" y1="15.6569" x2="18.4173" y2="15.6569" gradientUnits="userSpaceOnUse">
<stop stop-color="#FB7679"/>
<stop offset="0.47" stop-color="#FFE9B1"/>
<stop offset="0.58" stop-color="#FFF0AC"/>
<stop offset="1" stop-color="#FFF4AA"/>
</linearGradient>
<linearGradient id="paint4_linear_28_489" x1="15.1359" y1="17.046" x2="26.825" y2="17.046" gradientUnits="userSpaceOnUse">
<stop offset="0.17" stop-color="#BA80F7"/>
<stop offset="0.58" stop-color="#F5DFE6"/>
<stop offset="1" stop-color="#E8CEE6"/>
</linearGradient>
<linearGradient id="paint5_linear_28_489" x1="1.78896" y1="28.2072" x2="5.7545" y2="21.067" gradientUnits="userSpaceOnUse">
<stop stop-color="#DC0C7A"/>
<stop offset="1" stop-color="#E9395D"/>
</linearGradient>
<clipPath id="clip0_28_489">
<rect width="130" height="36.3762" fill="white"/>
</clipPath>
</defs>
</svg>
