<svg width="12" height="12" viewBox="0 0 12 12" fill="none" xmlns="http://www.w3.org/2000/svg">
<path d="M0.146631 0.855364C0.100144 0.808876 0.0632674 0.753687 0.0381083 0.692947C0.0129493 0.632208 4.8983e-10 0.567108 0 0.501364C-4.8983e-10 0.43562 0.0129493 0.37052 0.0381083 0.309781C0.0632674 0.249041 0.100144 0.193852 0.146631 0.147364C0.193119 0.100876 0.248309 0.0639999 0.309048 0.0388408C0.369788 0.0136817 0.434888 0.000732421 0.500632 0.000732422C0.566375 0.000732422 0.631476 0.0136817 0.692215 0.0388408C0.752954 0.0639999 0.808144 0.100876 0.854632 0.147364L6.00063 5.29436L11.1466 0.147364C11.1931 0.100876 11.2483 0.0639999 11.309 0.0388408C11.3698 0.0136817 11.4349 0.000732422 11.5006 0.000732422C11.5664 0.000732422 11.6315 0.0136817 11.6922 0.0388408C11.753 0.0639999 11.8081 0.100876 11.8546 0.147364C11.9011 0.193852 11.938 0.249041 11.9632 0.309781C11.9883 0.37052 12.0013 0.43562 12.0013 0.501364C12.0013 0.567108 11.9883 0.632208 11.9632 0.692947C11.938 0.753687 11.9011 0.808876 11.8546 0.855364L6.70763 6.00136L11.8546 11.1474C11.9011 11.1939 11.938 11.249 11.9632 11.3098C11.9883 11.3705 12.0013 11.4356 12.0013 11.5014C12.0013 11.5671 11.9883 11.6322 11.9632 11.6929C11.938 11.7537 11.9011 11.8089 11.8546 11.8554C11.8081 11.9019 11.753 11.9387 11.6922 11.9639C11.6315 11.989 11.5664 12.002 11.5006 12.002C11.4349 12.002 11.3698 11.989 11.309 11.9639C11.2483 11.9387 11.1931 11.9019 11.1466 11.8554L6.00063 6.70836L0.854632 11.8554C0.808144 11.9019 0.752954 11.9387 0.692215 11.9639C0.631476 11.989 0.566375 12.002 0.500632 12.002C0.434888 12.002 0.369788 11.989 0.309048 11.9639C0.248309 11.9387 0.193119 11.9019 0.146631 11.8554C0.100144 11.8089 0.0632674 11.7537 0.0381083 11.6929C0.0129493 11.6322 0 11.5671 0 11.5014C0 11.4356 0.0129493 11.3705 0.0381083 11.3098C0.0632674 11.249 0.100144 11.1939 0.146631 11.1474L5.29363 6.00136L0.146631 0.855364Z" fill="#B4B4B4"/>
</svg>
