<svg width="20" height="20" viewBox="0 0 20 20" fill="none" xmlns="http://www.w3.org/2000/svg">
<path d="M10 0.625C4.83124 0.625 0.625 4.83124 0.625 10C0.625 15.1687 4.83124 19.375 10 19.375C15.1688 19.375 19.375 15.1687 19.375 10C19.375 4.83124 15.1688 0.625 10 0.625ZM10 15.575C9.35001 15.575 8.825 15.05 8.825 14.4062C8.825 13.7563 9.35002 13.2312 10 13.2312C10.65 13.2312 11.175 13.7563 11.175 14.4062C11.175 15.05 10.65 15.575 10 15.575ZM11.175 10.8875C11.175 11.5375 10.65 12.0625 10 12.0625C9.35002 12.0625 8.825 11.5375 8.825 10.8875V5.59376C8.825 4.94999 9.35002 4.42497 10 4.42497C10.65 4.42497 11.175 4.94999 11.175 5.59376V10.8875Z" fill="#F3A100"/>
</svg>
