<svg width="64" height="64" viewBox="0 0 64 64" fill="none" xmlns="http://www.w3.org/2000/svg">
<path d="M32 0C14.327 0 0 14.327 0 32C0 49.673 14.327 64 32 64C49.6742 64 64 49.673 64 32C64 14.327 49.6742 0 32 0ZM32 57.6C17.8841 57.6 6.4 46.1159 6.4 32C6.4 17.8841 17.8841 6.4 32 6.4C46.1159 6.4 57.6 17.8841 57.6 32C57.6 46.1159 46.1159 57.6 32 57.6Z" fill="#479E58"/>
<path d="M43.639 29.76L28.1202 20.8C25.9865 19.5686 24.2406 20.576 24.2406 23.04V40.96C24.2406 43.424 25.9865 44.4326 28.1202 43.2L43.639 34.24C45.7727 33.0086 45.7727 30.9914 43.639 29.76Z" fill="#479E58"/>
</svg>
