<svg width="218" height="61" viewBox="0 0 218 61" fill="none" xmlns="http://www.w3.org/2000/svg">
<path d="M25.9701 24.2325C20.5393 28.9363 4.62287 35.3687 10.939 52.5053C4.13881 50.7497 -1.33522 42.9902 0.287917 34.9043C1.70411 27.8495 6.69407 22.2456 12.3372 16.8568C16.5768 12.8004 21.1817 8.86057 24.9102 4.51546C26.1446 3.0896 27.2791 1.58089 28.3058 0C31.158 8.45349 31.4028 19.5305 25.9701 24.2325Z" fill="url(#paint0_linear_3_33)"/>
<path d="M25.9845 43.5766C25.9737 43.7272 25.9701 43.8814 25.9701 44.0374C23.4095 48.8344 20.2118 51.4419 16.9295 52.4156C14.9787 52.9943 12.9051 53.0229 10.9391 52.4981C4.62287 35.3616 20.5393 28.9291 25.9701 24.2253C31.401 19.5216 31.158 8.44453 28.3094 -0.00717163C29.0835 1.19609 29.9245 2.35516 30.8287 3.46461C33.5927 6.87183 36.9344 10.0083 40.2886 13.1178C54.6754 37.4023 26.6485 31.3823 25.9845 43.5766Z" fill="url(#paint1_linear_3_33)"/>
<g style="mix-blend-mode:multiply">
<path d="M25.2089 28.583C16.3357 35.1858 12.0061 44.2275 16.9313 52.4228C14.9805 53.0015 12.9069 53.0301 10.9409 52.5053C4.62467 35.3687 20.5411 28.9363 25.9719 24.2325C31.4028 19.5288 31.1598 8.4517 28.3112 0C33.4704 11.9809 34.4997 21.6735 25.2089 28.583Z" fill="#C715CC"/>
</g>
<path d="M36.7562 51.0832C34.5357 49.6773 32.4375 47.3962 30.638 44.0446C30.0333 50.027 32.9773 57.0046 38.1364 60.9946H18.4717C21.7377 58.4715 24.1149 54.754 25.2647 50.8501C25.3673 50.5004 25.4627 50.1471 25.5418 49.7974C26.0009 47.9212 26.1444 45.982 25.9665 44.0589C25.9431 31.2496 54.85 37.7161 40.2904 13.1393C41.2045 13.9893 42.1223 14.8358 43.0274 15.684C49.1654 21.4493 54.8032 27.3492 56.322 34.9186C58.6343 46.4171 46.5436 57.27 36.7562 51.0832Z" fill="url(#paint2_linear_3_33)"/>
<path d="M28.3059 0C28.3059 0 28.3904 0.222366 28.547 0.640199C28.7035 1.05803 28.9249 1.6803 29.1678 2.4801C29.8411 4.69915 30.2991 6.9775 30.5354 9.28378C30.6977 10.8324 30.7368 12.3915 30.6524 13.9463C30.5701 15.7026 30.2678 17.4418 29.7526 19.1235C29.193 20.8683 28.3293 22.6508 26.9347 24.0873C26.7655 24.2666 26.5748 24.4316 26.3948 24.6055C26.2149 24.7795 26.0349 24.9157 25.8424 25.0736C25.4609 25.3766 25.0668 25.6779 24.6799 25.9576C23.9025 26.5243 23.1144 27.0695 22.3406 27.6128C20.7696 28.6888 19.2203 29.7773 17.7861 30.9501C16.3743 32.0751 15.0701 33.328 13.8902 34.6927C12.8002 35.9637 11.8918 37.3788 11.191 38.8979C10.568 40.2656 10.1438 41.7148 9.93135 43.2018C9.84225 43.8668 9.78759 44.536 9.7676 45.2066C9.7676 45.5282 9.773 45.8403 9.78379 46.1427C9.78379 46.2952 9.78379 46.4458 9.79459 46.5928C9.80539 46.7399 9.82158 46.8851 9.83418 47.0286C9.86117 47.3137 9.88636 47.5917 9.90976 47.8589C9.93315 48.1261 9.99073 48.3789 10.0267 48.6264C10.0627 48.8739 10.1023 49.1088 10.1383 49.3348C10.1743 49.5607 10.2337 49.7723 10.2787 49.9749C10.374 50.3784 10.4424 50.7443 10.5288 51.0509C10.6152 51.3576 10.6925 51.6266 10.7519 51.8417L10.9319 52.5017C10.9319 52.5017 10.8455 52.2793 10.6853 51.8615C10.6044 51.6535 10.5054 51.3952 10.3866 51.0922C10.2679 50.7891 10.1707 50.4286 10.0447 50.0288C9.98354 49.8279 9.91336 49.6181 9.85217 49.3957C9.79099 49.1734 9.74241 48.9331 9.68482 48.6874C9.62724 48.4417 9.56066 48.1853 9.50487 47.9163C9.44909 47.6473 9.4185 47.3639 9.37351 47.0752C9.35012 46.93 9.32673 46.7811 9.30333 46.6323C9.27994 46.4834 9.27634 46.3274 9.26194 46.1714C9.23675 45.8594 9.21156 45.5384 9.18457 45.2084C9.16544 44.5126 9.18587 43.8163 9.24575 43.1229C9.38617 41.552 9.76665 40.0117 10.374 38.5554C11.049 36.924 11.9635 35.4016 13.0876 34.0381C13.381 33.6795 13.6689 33.3208 13.9874 32.9909C14.1439 32.8205 14.2969 32.6448 14.4588 32.478L14.9537 31.9795C15.2794 31.6405 15.6339 31.3303 15.9758 31.0021C16.3177 30.6739 16.6866 30.3745 17.0555 30.0768C18.5221 28.8609 20.093 27.7455 21.664 26.6516C22.4521 26.1137 23.2403 25.5757 24.0033 25.0377C24.3884 24.7615 24.7501 24.4889 25.11 24.2056C25.2899 24.0586 25.4897 23.899 25.6498 23.7645C25.81 23.63 25.9791 23.4686 26.1303 23.309C27.3665 22.0429 28.2231 20.4397 28.7791 18.8132C29.3013 17.2174 29.637 15.5668 29.7796 13.8943C29.9141 12.3786 29.9447 10.8556 29.8714 9.33578C29.7474 7.04984 29.4387 4.77758 28.9483 2.54107C28.7683 1.73051 28.6118 1.0939 28.4948 0.661718L28.3059 0Z" fill="url(#paint3_linear_3_33)"/>
<path opacity="0.3" d="M25.9701 24.2325C20.5393 28.9363 4.62288 35.3687 10.9391 52.5053C2.13419 36.7442 15.4288 27.9518 21.9159 23.0543C27.6886 18.6949 27.8416 11.8159 24.9138 4.50829C26.1467 3.08462 27.28 1.57832 28.3059 0C31.158 8.45349 31.4028 19.5305 25.9701 24.2325Z" fill="white"/>
<g style="mix-blend-mode:multiply">
<path d="M41.9711 34.6765C36.6392 39.0503 31.84 37.6892 29.0148 44.0607C27.1182 48.3341 28.2375 56.2173 29.6878 61H18.4717C21.7377 58.4768 24.1149 54.7594 25.2647 50.8554C25.3673 50.5057 25.4627 50.1525 25.5418 49.8028C26.0009 47.9265 26.1444 45.9874 25.9665 44.0643C25.9431 31.255 54.85 37.7215 40.2904 13.1447C48.1433 21.9012 47.1932 30.3906 41.9711 34.6765Z" fill="#00CFFF"/>
</g>
<path d="M25.9719 44.0464C25.9719 44.0464 25.9719 43.8868 25.9557 43.5855C25.9467 43.1483 25.9792 42.7111 26.0529 42.28C26.1718 41.599 26.3996 40.9415 26.7277 40.3325C27.1638 39.5409 27.7273 38.8261 28.3958 38.2164C28.7723 37.8675 29.1682 37.54 29.5817 37.2355C30.01 36.9235 30.4688 36.6258 30.9475 36.3389C31.9066 35.7633 32.9449 35.2163 34.0264 34.6891C35.1079 34.1619 36.2146 33.6131 37.3159 33.0411C38.42 32.4791 39.471 31.8188 40.456 31.0685C41.4234 30.3577 42.2399 29.463 42.8583 28.4359C43.1437 27.9338 43.3736 27.4023 43.5439 26.8507C43.7063 26.3037 43.81 25.741 43.8534 25.1722C43.9205 24.0689 43.8442 22.9617 43.6266 21.8779C43.4248 20.8872 43.1579 19.9108 42.8277 18.9549C42.5218 18.0583 42.1907 17.2531 41.8937 16.5376C41.5968 15.822 41.3071 15.2087 41.0642 14.7066C40.8213 14.2045 40.6305 13.81 40.5009 13.5392C40.3714 13.2684 40.3012 13.1232 40.3012 13.1232L40.5585 13.5051C40.7223 13.7562 40.9814 14.1148 41.2783 14.5954C41.5752 15.076 41.9279 15.6553 42.3076 16.3403C42.6873 17.0253 43.0922 17.8162 43.4665 18.711C43.8925 19.6728 44.2385 20.6678 44.5012 21.6861C44.8081 22.8438 44.9439 24.0399 44.9043 25.2367C44.8607 26.5565 44.5037 27.8471 43.8624 29.0026C43.2074 30.188 42.2428 31.1796 41.1955 32.001C40.1459 32.7817 39.0281 33.467 37.8557 34.0489C36.7184 34.6335 35.5722 35.1248 34.4853 35.6234C33.3984 36.1219 32.3511 36.5935 31.3956 37.101C30.5005 37.5656 29.6495 38.11 28.8529 38.7275C28.1898 39.2514 27.6087 39.8709 27.129 40.5656C26.7657 41.1124 26.485 41.7093 26.2958 42.3374C26.1758 42.7484 26.0879 43.1681 26.0331 43.5927L25.9719 44.0464Z" fill="url(#paint4_linear_3_33)"/>
<path d="M10.9355 52.5053C4.13881 50.7497 -1.33521 42.9902 0.287924 34.9043C1.70412 27.8495 6.69408 22.2456 12.3373 16.8568C14.0666 27.4568 8.24703 31.2424 6.47634 34.3286C4.70565 37.4149 4.11902 46.3741 10.9355 52.5053Z" fill="url(#paint5_linear_3_33)"/>
<path opacity="0.3" d="M25.9845 43.5766H25.9557C23.1611 36.6743 32.3619 32.9693 37.8593 29.754C44.7945 25.7012 33.8807 10.3131 30.8413 3.46103C33.6053 6.86825 36.947 10.0047 40.3012 13.1142C54.6755 37.4023 26.6485 31.3823 25.9845 43.5766Z" fill="white"/>
<path opacity="0.3" d="M36.7562 51.0832C37.9169 45.4702 42.4354 44.8946 44.3932 43.5873C49.8888 39.9147 55.8847 28.583 41.2639 14.5937L43.031 15.6696C49.1691 21.435 54.8068 27.3349 56.3256 34.9043C58.6343 46.4171 46.5436 57.27 36.7562 51.0832Z" fill="#FFEC00"/>
<path d="M66.2425 29.2788L68.4019 27.5967C68.4408 27.5642 68.4859 27.54 68.5344 27.5253C68.583 27.5107 68.6341 27.506 68.6845 27.5115C68.7349 27.517 68.7837 27.5327 68.8279 27.5575C68.8721 27.5823 68.9108 27.6158 68.9417 27.6559C70.2446 29.1604 72.2294 29.6285 74.1602 29.6285C75.7294 29.6285 78.0687 29.0385 78.0687 27.0928C78.0687 23.1476 66.552 23.5511 66.552 16.7958C66.552 12.7538 69.9261 10.7471 73.6564 10.7471C76.2026 10.7471 78.6949 11.8984 80.6438 13.5213C80.6839 13.5529 80.7169 13.5926 80.7404 13.6379C80.764 13.6831 80.7775 13.7329 80.7803 13.7838C80.783 13.8347 80.7748 13.8856 80.7562 13.9331C80.7376 13.9806 80.7091 14.0236 80.6726 14.0593L78.8731 16.0946C78.8414 16.1347 78.8015 16.1675 78.7561 16.191C78.7107 16.2144 78.6608 16.228 78.6097 16.2307C78.5586 16.2334 78.5075 16.2252 78.4598 16.2067C78.4122 16.1882 78.369 16.1598 78.3332 16.1233C77.0231 14.9249 75.3141 14.2522 73.5358 14.235C71.7597 14.235 70.043 14.8555 70.043 16.9249C70.043 20.4649 81.5597 19.9932 81.5597 27.2201C81.5597 31.2335 77.5918 33.1218 74.0397 33.1218C71.1083 33.1218 68.0888 32.1175 66.1939 29.8168C66.1585 29.7798 66.1313 29.7357 66.1144 29.6874C66.0974 29.6391 66.091 29.5877 66.0956 29.5368C66.1002 29.4858 66.1157 29.4364 66.1411 29.3919C66.1664 29.3474 66.201 29.3089 66.2425 29.2788Z" fill="#2A2D2A"/>
<path d="M86.0494 31.8755V11.9898C86.0457 11.9385 86.0531 11.8869 86.0711 11.8387C86.0891 11.7904 86.1174 11.7466 86.1539 11.7102C86.1904 11.6738 86.2344 11.6456 86.2828 11.6277C86.3312 11.6097 86.383 11.6023 86.4345 11.6061H89.2165C89.268 11.6023 89.3198 11.6097 89.3682 11.6277C89.4166 11.6456 89.4606 11.6738 89.4971 11.7102C89.5337 11.7466 89.5619 11.7904 89.5799 11.8387C89.598 11.8869 89.6054 11.9385 89.6016 11.9898V28.1293C89.5939 28.2399 89.61 28.3508 89.649 28.4546C89.6879 28.5584 89.7488 28.6526 89.8274 28.731C89.906 28.8093 90.0006 28.87 90.1048 28.9088C90.2089 28.9476 90.3202 28.9637 90.4312 28.956H99.0687C99.1202 28.9523 99.1719 28.9596 99.2204 28.9776C99.2688 28.9956 99.3128 29.0237 99.3493 29.0601C99.3858 29.0965 99.4141 29.1403 99.4321 29.1886C99.4501 29.2369 99.4575 29.2884 99.4538 29.3398V31.8772C99.4575 31.9286 99.4501 31.9802 99.4321 32.0284C99.4141 32.0767 99.3858 32.1205 99.3493 32.1569C99.3128 32.1933 99.2688 32.2215 99.2204 32.2394C99.1719 32.2574 99.1202 32.2647 99.0687 32.261H86.4345C86.3828 32.2648 86.3309 32.2574 86.2824 32.2393C86.2338 32.2212 86.1897 32.1929 86.1532 32.1563C86.1166 32.1197 86.0884 32.0757 86.0705 32.0272C86.0526 31.9787 86.0454 31.927 86.0494 31.8755Z" fill="#2A2D2A"/>
<path d="M111.717 11.1344C117.045 11.1344 122.376 14.7335 122.376 21.9317C122.376 29.1299 117.045 32.7308 111.717 32.7308C106.358 32.7308 101.03 29.1317 101.03 21.9317C101.03 14.7317 106.358 11.1344 111.717 11.1344ZM111.717 29.1604C115.3 29.1604 118.915 26.7718 118.915 21.9317C118.915 17.0917 115.3 14.7048 111.717 14.7048C108.106 14.7048 104.519 17.0935 104.519 21.9317C104.519 26.77 108.106 29.1604 111.717 29.1604Z" fill="#2A2D2A"/>
<path d="M124.033 14.5255V11.9898C124.029 11.9385 124.037 11.8869 124.055 11.8387C124.073 11.7904 124.101 11.7466 124.137 11.7102C124.174 11.6738 124.218 11.6456 124.266 11.6277C124.315 11.6097 124.366 11.6023 124.418 11.6061H140.701C140.752 11.6034 140.803 11.6116 140.851 11.63C140.898 11.6484 140.942 11.6767 140.977 11.713C141.013 11.7493 141.041 11.7928 141.058 11.8405C141.076 11.8882 141.083 11.9391 141.079 11.9898V14.5255C141.083 14.5769 141.076 14.6284 141.058 14.6767C141.04 14.725 141.011 14.7688 140.975 14.8052C140.938 14.8416 140.894 14.8697 140.846 14.8877C140.798 14.9057 140.746 14.913 140.694 14.9093H135.164C135.052 14.9011 134.939 14.9167 134.833 14.955C134.727 14.9932 134.631 15.0533 134.55 15.1314C134.469 15.2094 134.405 15.3036 134.363 15.4078C134.321 15.512 134.302 15.6238 134.306 15.736V31.8755C134.31 31.9268 134.302 31.9784 134.284 32.0266C134.266 32.0749 134.238 32.1187 134.202 32.1551C134.165 32.1915 134.121 32.2197 134.073 32.2376C134.024 32.2556 133.973 32.263 133.921 32.2592H131.139C131.088 32.2607 131.037 32.2518 130.99 32.233C130.943 32.2143 130.899 32.1861 130.863 32.1501C130.827 32.1142 130.799 32.0713 130.78 32.0241C130.761 31.9768 130.752 31.9263 130.754 31.8755V15.736C130.761 15.6254 130.745 15.5145 130.706 15.4108C130.667 15.3071 130.606 15.213 130.527 15.1348C130.448 15.0566 130.353 14.9962 130.249 14.9576C130.145 14.919 130.033 14.9031 129.923 14.9111H124.416C124.365 14.9146 124.313 14.907 124.265 14.8888C124.216 14.8706 124.172 14.8423 124.136 14.8057C124.1 14.7691 124.072 14.7251 124.054 14.6768C124.036 14.6285 124.029 14.5769 124.033 14.5255Z" fill="#2A2D2A"/>
<path d="M145.378 11.6061H148.162C148.214 11.6023 148.265 11.6097 148.314 11.6277C148.362 11.6456 148.406 11.6738 148.443 11.7102C148.479 11.7466 148.508 11.7904 148.526 11.8387C148.544 11.8869 148.551 11.9385 148.547 11.9898V31.8755C148.551 31.9268 148.544 31.9784 148.526 32.0266C148.508 32.0749 148.479 32.1187 148.443 32.1551C148.406 32.1915 148.362 32.2197 148.314 32.2376C148.265 32.2556 148.214 32.263 148.162 32.2592H145.378C145.327 32.263 145.275 32.2556 145.227 32.2376C145.178 32.2197 145.134 32.1915 145.098 32.1551C145.061 32.1187 145.033 32.0749 145.015 32.0266C144.997 31.9784 144.989 31.9268 144.993 31.8755V11.9898C144.989 11.9385 144.997 11.8869 145.015 11.8387C145.033 11.7904 145.061 11.7466 145.098 11.7102C145.134 11.6738 145.178 11.6456 145.227 11.6277C145.275 11.6097 145.327 11.6023 145.378 11.6061Z" fill="#2A2D2A"/>
<path d="M163.852 11.1631C165.925 11.1631 167.908 11.9898 169.715 13.0227C169.759 13.0496 169.797 13.0858 169.826 13.1287C169.855 13.1717 169.875 13.2204 169.883 13.2715C169.891 13.3226 169.888 13.3749 169.875 13.4249C169.861 13.4748 169.836 13.5211 169.803 13.5607L168.205 15.8328C168.181 15.8802 168.146 15.9214 168.103 15.9528C168.06 15.9842 168.01 16.0051 167.957 16.0136C167.905 16.0222 167.851 16.0182 167.8 16.0021C167.749 15.9859 167.703 15.958 167.665 15.9207C166.563 15.1217 165.238 14.6882 163.875 14.6815C154.548 14.6815 154.548 29.207 163.875 29.207C165.799 29.207 166.983 28.6171 167.694 28.0271C167.728 27.9924 167.77 27.9659 167.816 27.9497C167.862 27.9335 167.911 27.928 167.96 27.9335C168.008 27.939 168.055 27.9555 168.096 27.9817C168.137 28.0078 168.172 28.043 168.198 28.0844L169.817 30.3278C169.848 30.3687 169.869 30.4153 169.882 30.4648C169.894 30.5143 169.895 30.5657 169.887 30.6159C169.879 30.6661 169.86 30.7142 169.833 30.7571C169.805 30.8001 169.769 30.837 169.727 30.8658C168.129 32.105 166.412 32.7236 163.836 32.7236C156.701 32.7236 153.148 27.3259 153.148 21.964C153.148 16.6021 156.717 11.1631 163.852 11.1631Z" fill="#2A2D2A"/>
<path d="M174.55 29.2788L176.709 27.5967C176.748 27.5642 176.793 27.5399 176.842 27.5253C176.89 27.5107 176.941 27.506 176.992 27.5115C177.042 27.517 177.091 27.5327 177.135 27.5575C177.179 27.5823 177.218 27.6158 177.249 27.6559C178.552 29.1604 180.535 29.6285 182.467 29.6285C184.037 29.6285 186.376 29.0385 186.376 27.0928C186.376 23.1099 174.859 23.5511 174.859 16.6183C174.861 16.5658 174.873 16.5143 174.895 16.4665C174.917 16.4188 174.948 16.3759 174.987 16.3402C175.026 16.3046 175.071 16.2769 175.12 16.2587C175.17 16.2406 175.222 16.2324 175.275 16.2345H177.974C178.027 16.2324 178.079 16.2406 178.128 16.2588C178.178 16.2769 178.223 16.3047 178.261 16.3403C178.3 16.376 178.331 16.419 178.353 16.4667C178.374 16.5144 178.386 16.5659 178.388 16.6183C178.928 20.8665 189.874 20.1887 189.874 27.2093C189.874 31.2227 185.915 33.111 182.356 33.111C179.425 33.111 176.405 32.1068 174.51 29.806C174.476 29.7698 174.45 29.7269 174.433 29.68C174.417 29.6331 174.41 29.5833 174.414 29.5337C174.417 29.4841 174.431 29.4359 174.455 29.392C174.478 29.3481 174.511 29.3096 174.55 29.2788ZM178.28 11.4877C179.441 10.9977 180.69 10.747 181.951 10.7507C184.497 10.7507 186.99 11.902 188.938 13.5249C188.979 13.5564 189.012 13.5962 189.035 13.6415C189.059 13.6867 189.072 13.7365 189.075 13.7874C189.078 13.8383 189.069 13.8892 189.051 13.9367C189.032 13.9842 189.004 14.0272 188.967 14.0629L187.168 16.0982C187.136 16.1383 187.096 16.1711 187.051 16.1945C187.005 16.218 186.955 16.2315 186.904 16.2343C186.853 16.237 186.802 16.2288 186.754 16.2103C186.707 16.1918 186.664 16.1634 186.628 16.1269C185.319 14.9279 183.61 14.2551 181.832 14.2386C181.2 14.2251 180.57 14.3154 179.968 14.5058C179.921 14.5308 179.869 14.5459 179.816 14.5504C179.763 14.5548 179.71 14.5485 179.659 14.5317C179.609 14.5149 179.562 14.4881 179.523 14.4528C179.483 14.4175 179.451 14.3745 179.428 14.3265L178.127 11.9952C178.097 11.9543 178.076 11.9069 178.067 11.8569C178.058 11.8068 178.06 11.7553 178.074 11.7063C178.088 11.6573 178.113 11.6121 178.147 11.5743C178.181 11.5364 178.224 11.5068 178.271 11.4877H178.28Z" fill="#2A2D2A"/>
<path d="M194.344 11.9898C194.34 11.9385 194.348 11.8869 194.366 11.8387C194.384 11.7904 194.412 11.7466 194.448 11.7102C194.485 11.6738 194.529 11.6456 194.577 11.6277C194.626 11.6097 194.678 11.6023 194.729 11.6061H197.513C197.564 11.6023 197.616 11.6097 197.665 11.6277C197.713 11.6456 197.757 11.6738 197.794 11.7102C197.83 11.7466 197.858 11.7904 197.876 11.8387C197.894 11.8869 197.902 11.9385 197.898 11.9898V14.5255C197.902 14.5769 197.894 14.6284 197.876 14.6767C197.858 14.725 197.83 14.7688 197.794 14.8052C197.757 14.8416 197.713 14.8697 197.665 14.8877C197.616 14.9057 197.564 14.913 197.513 14.9093H194.729C194.678 14.913 194.626 14.9057 194.577 14.8877C194.529 14.8697 194.485 14.8416 194.448 14.8052C194.412 14.7688 194.384 14.725 194.366 14.6767C194.348 14.6284 194.34 14.5769 194.344 14.5255V11.9898ZM194.729 17.7731H197.513C197.564 17.7694 197.616 17.7768 197.665 17.7947C197.713 17.8127 197.757 17.8408 197.794 17.8772C197.83 17.9137 197.858 17.9575 197.876 18.0057C197.894 18.054 197.902 18.1056 197.898 18.1569V31.8755C197.902 31.9268 197.894 31.9784 197.876 32.0266C197.858 32.0749 197.83 32.1187 197.794 32.1551C197.757 32.1915 197.713 32.2197 197.665 32.2376C197.616 32.2556 197.564 32.263 197.513 32.2592H194.729C194.678 32.263 194.626 32.2556 194.577 32.2376C194.529 32.2197 194.485 32.1915 194.448 32.1551C194.412 32.1187 194.384 32.0749 194.366 32.0266C194.348 31.9784 194.34 31.9268 194.344 31.8755V18.1569C194.34 18.1054 194.348 18.0537 194.366 18.0053C194.384 17.9569 194.412 17.913 194.449 17.8765C194.486 17.8401 194.53 17.812 194.579 17.7941C194.627 17.7763 194.679 17.7691 194.731 17.7731H194.729Z" fill="#2A2D2A"/>
<path d="M202.695 29.2788L204.855 27.5967C204.894 27.5642 204.939 27.5399 204.987 27.5253C205.036 27.5107 205.087 27.506 205.137 27.5115C205.188 27.517 205.237 27.5327 205.281 27.5575C205.325 27.5823 205.364 27.6158 205.395 27.6559C206.697 29.1604 208.68 29.6285 210.604 29.6285C212.173 29.6285 214.513 29.0385 214.513 27.0928C214.513 23.1099 202.996 23.5511 202.996 16.6183C202.998 16.5658 203.01 16.5143 203.032 16.4665C203.054 16.4188 203.085 16.3759 203.124 16.3402C203.162 16.3046 203.208 16.2769 203.257 16.2587C203.306 16.2406 203.359 16.2324 203.412 16.2345H206.111C206.163 16.2324 206.216 16.2406 206.265 16.2588C206.314 16.2769 206.36 16.3047 206.398 16.3403C206.437 16.376 206.468 16.419 206.489 16.4667C206.511 16.5144 206.523 16.5659 206.525 16.6183C207.065 20.8665 218.011 20.1887 218.011 27.2093C218.011 31.2227 214.052 33.111 210.493 33.111C207.561 33.111 204.542 32.1068 202.647 29.806C202.613 29.7692 202.588 29.7258 202.572 29.6786C202.556 29.6313 202.55 29.5813 202.555 29.5317C202.559 29.4821 202.574 29.434 202.598 29.3905C202.622 29.3469 202.656 29.3089 202.695 29.2788ZM206.426 11.4877C207.587 10.9977 208.836 10.747 210.097 10.7507C212.643 10.7507 215.135 11.902 217.084 13.5249C217.124 13.5564 217.157 13.5962 217.181 13.6415C217.204 13.6867 217.218 13.7365 217.221 13.7874C217.223 13.8383 217.215 13.8892 217.197 13.9367C217.178 13.9842 217.149 14.0272 217.113 14.0629L215.313 16.0982C215.282 16.1383 215.242 16.1711 215.196 16.1945C215.151 16.218 215.101 16.2315 215.05 16.2343C214.999 16.237 214.948 16.2288 214.9 16.2103C214.852 16.1918 214.809 16.1634 214.774 16.1269C213.465 14.9279 211.756 14.2551 209.978 14.2386C209.346 14.2251 208.716 14.3154 208.114 14.5058C208.067 14.5308 208.015 14.5459 207.962 14.5504C207.909 14.5548 207.856 14.5485 207.805 14.5317C207.755 14.5149 207.708 14.4881 207.668 14.4528C207.629 14.4175 207.596 14.3745 207.574 14.3265L206.273 11.9952C206.243 11.9537 206.223 11.9058 206.214 11.8553C206.205 11.8047 206.209 11.7529 206.223 11.7038C206.238 11.6547 206.264 11.6097 206.299 11.5722C206.334 11.5347 206.378 11.5058 206.426 11.4877Z" fill="#2A2D2A"/>
<path d="M104.01 43.6931C103.917 43.36 103.783 43.04 103.609 42.7409C103.362 42.3015 103.17 42.2029 102.444 42.2029H101.062C100.688 42.2029 100.649 42.2424 100.649 42.6154V45.5904H102.252C103.182 45.5904 103.247 45.4362 103.441 44.5342H103.83V47.2241H103.429C103.261 46.3274 103.171 46.1158 102.254 46.1158H100.65V48.4184C100.65 49.5392 100.78 49.5912 101.957 49.6934V50.0521H98.3579V49.6934C99.4052 49.6163 99.5203 49.5266 99.5203 48.4184V43.3201C99.5203 42.1993 99.3908 42.1473 98.3579 42.0451V41.6864H102.462C103.625 41.6864 104.064 41.6739 104.284 41.6595C104.298 42.124 104.348 43.026 104.413 43.6429L104.01 43.6931Z" fill="#2A2D2A"/>
<path d="M113.823 50.1597C113.655 50.1597 113.513 50.1453 113.344 50.1328C112.401 50.0682 111.904 49.8243 111.329 49.0263C110.85 48.3682 110.386 47.5576 109.972 46.9013C109.713 46.4888 109.545 46.4117 108.892 46.4117H108.439V48.4327C108.439 49.5284 108.581 49.593 109.615 49.688V50.0467H106.159V49.688C107.238 49.5715 107.321 49.5212 107.321 48.4327V43.2932C107.321 42.1993 107.179 42.1599 106.159 42.0379V41.6793H109.455C110.398 41.6793 111.032 41.794 111.523 42.1168C111.805 42.2995 112.035 42.5524 112.189 42.8506C112.343 43.1487 112.416 43.4818 112.401 43.8168C112.401 44.9251 111.681 45.6101 110.735 46.0315C110.967 46.4314 111.523 47.2868 111.91 47.8732C112.218 48.3396 112.559 48.7831 112.932 49.2002C113.179 49.4887 113.507 49.6957 113.875 49.7938L113.823 50.1597ZM109.049 45.9724C109.72 45.9724 110.146 45.8701 110.47 45.5994C110.974 45.2264 111.19 44.7117 111.19 44.0159C111.19 42.6369 110.272 42.1348 109.277 42.1348C108.903 42.1348 108.683 42.1868 108.592 42.2639C108.5 42.341 108.437 42.4826 108.437 42.818V45.9724H109.049Z" fill="#2A2D2A"/>
<path d="M121.681 48.0077C121.604 48.3431 121.254 49.6701 121.125 50.0557H114.845V49.697C116.047 49.6073 116.137 49.4908 116.137 48.4417V43.3452C116.137 42.1993 115.995 42.1348 115.025 42.0451V41.6864H118.984C120.198 41.6864 120.702 41.6739 120.859 41.6595C120.871 41.9823 120.922 42.9489 120.974 43.6321L120.587 43.6967C120.498 43.3558 120.367 43.027 120.198 42.7176C119.991 42.2926 119.694 42.2029 118.919 42.2029H117.686C117.285 42.2029 117.26 42.2424 117.26 42.6154V45.4613H118.699C119.669 45.4613 119.734 45.2676 119.889 44.3853H120.288V47.0394H119.889C119.72 46.1105 119.617 45.9831 118.687 45.9831H117.265V48.5457C117.265 49.4424 117.549 49.5248 118.195 49.5374H119.397C120.186 49.5374 120.315 49.4208 120.599 49.0873C120.88 48.7221 121.114 48.324 121.298 47.9019L121.681 48.0077Z" fill="#2A2D2A"/>
<path d="M129.941 48.0077C129.863 48.3431 129.514 49.6701 129.385 50.0557H123.104V49.697C124.305 49.6073 124.396 49.4908 124.396 48.4417V43.3452C124.396 42.1993 124.254 42.1348 123.284 42.0451V41.6864H127.243C128.458 41.6864 128.962 41.6739 129.116 41.6595C129.129 41.9823 129.181 42.9489 129.233 43.6321L128.845 43.6967C128.757 43.3556 128.627 43.0267 128.458 42.7176C128.251 42.2926 127.954 42.2029 127.178 42.2029H125.951C125.55 42.2029 125.525 42.2424 125.525 42.6154V45.4613H126.964C127.934 45.4613 127.997 45.2676 128.154 44.3853H128.553V47.0394H128.154C127.985 46.1105 127.882 45.9831 126.952 45.9831H125.53V48.5457C125.53 49.4424 125.814 49.5248 126.46 49.5374H127.662C128.451 49.5374 128.58 49.4208 128.864 49.0873C129.145 48.7225 129.379 48.3243 129.561 47.9019L129.941 48.0077Z" fill="#2A2D2A"/>
<path d="M142.904 47.9952C142.709 48.6583 142.472 49.3082 142.193 49.9409C141.418 50.1231 140.625 50.2265 139.829 50.2493C136.739 50.2493 135.163 48.2014 135.163 45.9455C135.163 43.3183 137.166 41.5017 140.061 41.5017C140.882 41.5242 141.7 41.6233 142.503 41.7976C142.555 42.3787 142.645 43.1498 142.749 43.7953L142.348 43.885C142.091 43.0224 141.779 42.4934 141.121 42.2226C140.689 42.0536 140.228 41.9707 139.764 41.9788C137.632 41.9788 136.507 43.5497 136.507 45.6747C136.507 48.1602 137.799 49.758 139.894 49.758C141.211 49.758 141.857 49.1518 142.517 47.8643L142.904 47.9952Z" fill="#2A2D2A"/>
<path d="M149.652 50.0557V49.697C150.491 49.5948 150.595 49.4657 150.413 48.9797C150.232 48.4937 149.987 47.8338 149.715 47.0214H146.924C146.717 47.6007 146.523 48.0974 146.343 48.6354C146.059 49.4728 146.238 49.5751 147.298 49.7114V50.07H144.318V49.7114C145.134 49.6091 145.341 49.5177 145.792 48.3592L148.457 41.5806L148.871 41.5035C149.684 43.7057 150.577 46.1409 151.39 48.3682C151.804 49.489 151.921 49.593 152.83 49.6952V50.0539L149.652 50.0557ZM148.358 43.191C147.944 44.2993 147.505 45.4703 147.118 46.4888H149.537L148.358 43.191Z" fill="#2A2D2A"/>
<path d="M158.698 43.6411C158.479 42.7911 158.117 41.9554 156.899 41.9554C155.891 41.9554 155.542 42.6889 155.542 43.3578C155.542 44.2544 156.11 44.6974 157.183 45.2515C158.734 46.0495 159.405 46.6431 159.405 47.8661C159.405 49.2182 158.23 50.2493 156.562 50.2493C155.881 50.2334 155.21 50.0891 154.583 49.8243C154.431 49.1873 154.315 48.5426 154.234 47.893L154.635 47.789C154.894 48.6515 155.463 49.7723 156.807 49.7723C157.006 49.7833 157.204 49.7527 157.39 49.6823C157.576 49.6119 157.745 49.5034 157.887 49.3638C158.028 49.2242 158.138 49.0565 158.211 48.8718C158.283 48.687 158.315 48.4892 158.306 48.2911C158.306 47.2994 157.766 46.9013 156.638 46.2826C155.281 45.5474 154.518 44.9305 154.518 43.7326C154.518 42.5849 155.475 41.5035 157.181 41.5035C157.757 41.5257 158.329 41.6081 158.887 41.7492C158.939 42.2119 158.991 42.7266 159.094 43.564L158.698 43.6411Z" fill="#2A2D2A"/>
<path d="M161.167 50.0556V49.697C162.227 49.5804 162.331 49.5302 162.331 48.4417V43.3201C162.331 42.2119 162.227 42.1599 161.167 42.0451V41.6864H164.631V42.0451C163.551 42.1599 163.456 42.2119 163.456 43.3201V48.4327C163.456 49.541 163.558 49.5786 164.631 49.688V50.0467L161.167 50.0556Z" fill="#2A2D2A"/>
<path d="M175.514 42.0451C174.686 42.1348 174.415 42.2639 174.377 42.8556C174.364 43.2681 174.337 43.8097 174.337 45.0076V50.1722H173.846L168.315 43.4349V46.6628C168.315 47.8212 168.354 48.4022 168.379 48.7752C168.406 49.4316 168.728 49.6253 169.659 49.7024V50.061H166.519V49.7024C167.319 49.6378 167.631 49.4441 167.681 48.8147C167.721 48.4022 167.746 47.8212 167.746 46.6502V43.3578C167.746 42.9991 167.721 42.7911 167.489 42.5077C167.242 42.1868 166.97 42.1096 166.337 42.0451V41.6864H168.277L173.756 48.1637V45.0112C173.756 43.8133 173.731 43.2591 173.691 42.8718C173.654 42.2926 173.355 42.1132 172.322 42.0487V41.69H175.514V42.0451Z" fill="#2A2D2A"/>
<path d="M181.537 41.5035C183.747 41.5035 185.725 43.191 185.725 45.7536C185.725 48.5224 183.837 50.2493 181.46 50.2493C178.978 50.2493 177.168 48.3682 177.168 45.9455C177.168 43.6411 178.811 41.5035 181.537 41.5035ZM181.278 41.9806C179.838 41.9806 178.512 43.191 178.512 45.5994C178.512 48.0077 179.831 49.7598 181.667 49.7598C183.23 49.7598 184.407 48.6013 184.407 46.114C184.407 43.4098 182.971 41.9806 181.278 41.9806Z" fill="#2A2D2A"/>
<defs>
<linearGradient id="paint0_linear_3_33" x1="5.573" y1="39.8806" x2="40.7063" y2="5.5669" gradientUnits="userSpaceOnUse">
<stop stop-color="#FB2974"/>
<stop offset="1" stop-color="#FFF200"/>
</linearGradient>
<linearGradient id="paint1_linear_3_33" x1="8.61952" y1="46.2539" x2="35.943" y2="14.1202" gradientUnits="userSpaceOnUse">
<stop stop-color="#452AF1"/>
<stop offset="1" stop-color="#E03BF9"/>
</linearGradient>
<linearGradient id="paint2_linear_3_33" x1="25.2611" y1="52.794" x2="49.0681" y2="27.7243" gradientUnits="userSpaceOnUse">
<stop stop-color="#0086C1"/>
<stop offset="1" stop-color="#9AEE64"/>
</linearGradient>
<linearGradient id="paint3_linear_3_33" x1="8.89125" y1="26.2553" x2="30.8845" y2="26.2553" gradientUnits="userSpaceOnUse">
<stop stop-color="#FB7679"/>
<stop offset="0.47" stop-color="#FFE9B1"/>
<stop offset="0.58" stop-color="#FFF0AC"/>
<stop offset="1" stop-color="#FFF4AA"/>
</linearGradient>
<linearGradient id="paint4_linear_3_33" x1="25.3817" y1="28.5848" x2="44.9835" y2="28.5848" gradientUnits="userSpaceOnUse">
<stop offset="0.17" stop-color="#BA80F7"/>
<stop offset="0.58" stop-color="#F5DFE6"/>
<stop offset="1" stop-color="#E8CEE6"/>
</linearGradient>
<linearGradient id="paint5_linear_3_33" x1="2.99974" y1="47.3012" x2="9.64963" y2="35.3277" gradientUnits="userSpaceOnUse">
<stop stop-color="#DC0C7A"/>
<stop offset="1" stop-color="#E9395D"/>
</linearGradient>
</defs>
</svg>
